<mxfile host="drawio-plugin" modified="2021-10-18T13:56:26.301Z" agent="5.0 (Windows NT 6.2; Win64; x64) AppleWebKit/537.36 (KHTML, like Gecko) Chrome/89.0.4389.114 Safari/537.36" version="14.7.4" etag="HM8ITvn_lkuypRoiAZ1n" type="embed"><diagram id="BFG0TYW5E2riebpPX1U5" name="Page-1"><mxGraphModel dx="1562" dy="743" grid="1" gridSize="10" guides="1" tooltips="1" connect="1" arrows="1" fold="1" page="1" pageScale="1" pageWidth="850" pageHeight="1100" math="0" shadow="0"><root><mxCell id="0"/><mxCell id="1" parent="0"/><mxCell id="2" style="edgeStyle=orthogonalEdgeStyle;rounded=0;orthogonalLoop=1;jettySize=auto;html=1;entryX=0;entryY=0.5;entryDx=0;entryDy=0;" edge="1" parent="1" source="3" target="15"><mxGeometry relative="1" as="geometry"/></mxCell><mxCell id="3" value="home" style="rounded=0;whiteSpace=wrap;html=1;" vertex="1" parent="1"><mxGeometry x="530" y="90" width="120" height="60" as="geometry"/></mxCell><mxCell id="4" value="" style="edgeStyle=orthogonalEdgeStyle;rounded=0;orthogonalLoop=1;jettySize=auto;html=1;" edge="1" parent="1" source="6" target="8"><mxGeometry relative="1" as="geometry"/></mxCell><mxCell id="5" style="edgeStyle=orthogonalEdgeStyle;rounded=0;orthogonalLoop=1;jettySize=auto;html=1;entryX=0;entryY=0.5;entryDx=0;entryDy=0;" edge="1" parent="1" source="6" target="10"><mxGeometry relative="1" as="geometry"/></mxCell><mxCell id="6" value="landing" style="rounded=0;whiteSpace=wrap;html=1;fillColor=#fff2cc;strokeColor=#d6b656;" vertex="1" parent="1"><mxGeometry x="10" y="90" width="120" height="60" as="geometry"/></mxCell><mxCell id="7" style="edgeStyle=orthogonalEdgeStyle;rounded=0;orthogonalLoop=1;jettySize=auto;html=1;entryX=0;entryY=0.5;entryDx=0;entryDy=0;" edge="1" parent="1" source="8" target="3"><mxGeometry relative="1" as="geometry"/></mxCell><mxCell id="87" style="edgeStyle=orthogonalEdgeStyle;rounded=0;orthogonalLoop=1;jettySize=auto;html=1;entryX=0;entryY=0.75;entryDx=0;entryDy=0;" edge="1" parent="1" source="8" target="86"><mxGeometry relative="1" as="geometry"><Array as="points"><mxPoint x="480" y="120"/><mxPoint x="480" y="225"/></Array></mxGeometry></mxCell><mxCell id="90" style="edgeStyle=orthogonalEdgeStyle;rounded=0;orthogonalLoop=1;jettySize=auto;html=1;entryX=0;entryY=0.5;entryDx=0;entryDy=0;" edge="1" parent="1" source="8" target="88"><mxGeometry relative="1" as="geometry"><Array as="points"><mxPoint x="480" y="120"/><mxPoint x="480" y="280"/></Array></mxGeometry></mxCell><mxCell id="91" style="edgeStyle=orthogonalEdgeStyle;rounded=0;orthogonalLoop=1;jettySize=auto;html=1;entryX=0;entryY=0.5;entryDx=0;entryDy=0;" edge="1" parent="1" source="8" target="89"><mxGeometry relative="1" as="geometry"><Array as="points"><mxPoint x="480" y="120"/><mxPoint x="480" y="350"/></Array></mxGeometry></mxCell><mxCell id="8" value="login" style="whiteSpace=wrap;html=1;rounded=0;" vertex="1" parent="1"><mxGeometry x="345" y="90" width="120" height="60" as="geometry"/></mxCell><mxCell id="9" style="edgeStyle=orthogonalEdgeStyle;rounded=0;orthogonalLoop=1;jettySize=auto;html=1;" edge="1" parent="1" source="10" target="8"><mxGeometry relative="1" as="geometry"/></mxCell><mxCell id="10" value="register" style="whiteSpace=wrap;html=1;rounded=0;" vertex="1" parent="1"><mxGeometry x="210" y="180" width="120" height="60" as="geometry"/></mxCell><mxCell id="11" style="edgeStyle=orthogonalEdgeStyle;rounded=0;orthogonalLoop=1;jettySize=auto;html=1;" edge="1" parent="1" source="15" target="20"><mxGeometry relative="1" as="geometry"/></mxCell><mxCell id="59" style="edgeStyle=orthogonalEdgeStyle;rounded=0;orthogonalLoop=1;jettySize=auto;html=1;" edge="1" parent="1" source="15" target="58"><mxGeometry relative="1" as="geometry"/></mxCell><mxCell id="15" value="pets" style="rounded=0;whiteSpace=wrap;html=1;" vertex="1" parent="1"><mxGeometry x="700" y="90" width="120" height="60" as="geometry"/></mxCell><mxCell id="17" style="edgeStyle=orthogonalEdgeStyle;rounded=0;orthogonalLoop=1;jettySize=auto;html=1;entryX=0;entryY=0.5;entryDx=0;entryDy=0;" edge="1" parent="1" target="23"><mxGeometry relative="1" as="geometry"><mxPoint x="1130" y="120" as="sourcePoint"/></mxGeometry></mxCell><mxCell id="18" style="edgeStyle=orthogonalEdgeStyle;rounded=0;orthogonalLoop=1;jettySize=auto;html=1;entryX=0;entryY=0.5;entryDx=0;entryDy=0;" edge="1" parent="1" target="24"><mxGeometry relative="1" as="geometry"><mxPoint x="1130" y="120" as="sourcePoint"/></mxGeometry></mxCell><mxCell id="20" value="choose pet category" style="rounded=0;whiteSpace=wrap;html=1;" vertex="1" parent="1"><mxGeometry x="700" y="180" width="120" height="60" as="geometry"/></mxCell><mxCell id="26" value="routing user" style="rounded=0;whiteSpace=wrap;html=1;fillColor=#ffff88;strokeColor=#36393d;fontStyle=1" vertex="1" parent="1"><mxGeometry x="10" y="40" width="90" height="30" as="geometry"/></mxCell><mxCell id="27" style="edgeStyle=orthogonalEdgeStyle;rounded=0;orthogonalLoop=1;jettySize=auto;html=1;entryX=0;entryY=0.5;entryDx=0;entryDy=0;" edge="1" parent="1" source="28" target="40"><mxGeometry relative="1" as="geometry"/></mxCell><mxCell id="28" value="home" style="rounded=0;whiteSpace=wrap;html=1;" vertex="1" parent="1"><mxGeometry x="530" y="430" width="120" height="60" as="geometry"/></mxCell><mxCell id="29" value="" style="edgeStyle=orthogonalEdgeStyle;rounded=0;orthogonalLoop=1;jettySize=auto;html=1;" edge="1" parent="1" source="31" target="33"><mxGeometry relative="1" as="geometry"/></mxCell><mxCell id="31" value="landing" style="rounded=0;whiteSpace=wrap;html=1;fillColor=#fff2cc;strokeColor=#d6b656;" vertex="1" parent="1"><mxGeometry x="10" y="430" width="120" height="60" as="geometry"/></mxCell><mxCell id="32" style="edgeStyle=orthogonalEdgeStyle;rounded=0;orthogonalLoop=1;jettySize=auto;html=1;entryX=0;entryY=0.5;entryDx=0;entryDy=0;" edge="1" parent="1" source="33" target="28"><mxGeometry relative="1" as="geometry"/></mxCell><mxCell id="33" value="login" style="whiteSpace=wrap;html=1;rounded=0;" vertex="1" parent="1"><mxGeometry x="345" y="430" width="120" height="60" as="geometry"/></mxCell><mxCell id="36" style="edgeStyle=orthogonalEdgeStyle;rounded=0;orthogonalLoop=1;jettySize=auto;html=1;" edge="1" parent="1" source="40" target="45"><mxGeometry relative="1" as="geometry"/></mxCell><mxCell id="38" style="edgeStyle=orthogonalEdgeStyle;rounded=0;orthogonalLoop=1;jettySize=auto;html=1;entryX=0;entryY=0.5;entryDx=0;entryDy=0;" edge="1" parent="1" source="40" target="44"><mxGeometry relative="1" as="geometry"/></mxCell><mxCell id="75" style="edgeStyle=orthogonalEdgeStyle;rounded=0;orthogonalLoop=1;jettySize=auto;html=1;entryX=0.5;entryY=0;entryDx=0;entryDy=0;" edge="1" parent="1" source="40" target="74"><mxGeometry relative="1" as="geometry"/></mxCell><mxCell id="40" value="pets" style="rounded=0;whiteSpace=wrap;html=1;" vertex="1" parent="1"><mxGeometry x="700" y="430" width="120" height="60" as="geometry"/></mxCell><mxCell id="41" value="" style="edgeStyle=orthogonalEdgeStyle;rounded=0;orthogonalLoop=1;jettySize=auto;html=1;" edge="1" parent="1" source="44" target="47"><mxGeometry relative="1" as="geometry"/></mxCell><mxCell id="42" style="edgeStyle=orthogonalEdgeStyle;rounded=0;orthogonalLoop=1;jettySize=auto;html=1;entryX=0;entryY=0.5;entryDx=0;entryDy=0;" edge="1" parent="1" source="44" target="48"><mxGeometry relative="1" as="geometry"/></mxCell><mxCell id="44" value="donations" style="rounded=0;whiteSpace=wrap;html=1;" vertex="1" parent="1"><mxGeometry x="1010" y="430" width="120" height="60" as="geometry"/></mxCell><mxCell id="45" value="add pets form" style="rounded=0;whiteSpace=wrap;html=1;" vertex="1" parent="1"><mxGeometry x="610" y="530" width="120" height="60" as="geometry"/></mxCell><mxCell id="47" value="view donations&amp;nbsp;" style="whiteSpace=wrap;html=1;rounded=0;" vertex="1" parent="1"><mxGeometry x="1010" y="520" width="120" height="60" as="geometry"/></mxCell><mxCell id="77" value="" style="edgeStyle=orthogonalEdgeStyle;rounded=0;orthogonalLoop=1;jettySize=auto;html=1;" edge="1" parent="1" source="48" target="49"><mxGeometry relative="1" as="geometry"/></mxCell><mxCell id="79" value="" style="edgeStyle=orthogonalEdgeStyle;rounded=0;orthogonalLoop=1;jettySize=auto;html=1;" edge="1" parent="1" source="48" target="73"><mxGeometry relative="1" as="geometry"/></mxCell><mxCell id="48" value="visits" style="rounded=0;whiteSpace=wrap;html=1;" vertex="1" parent="1"><mxGeometry x="1190" y="430" width="120" height="60" as="geometry"/></mxCell><mxCell id="49" value="view visits" style="rounded=0;whiteSpace=wrap;html=1;" vertex="1" parent="1"><mxGeometry x="1190" y="520" width="120" height="60" as="geometry"/></mxCell><mxCell id="51" value="routing admin" style="rounded=0;whiteSpace=wrap;html=1;fillColor=#ffff88;strokeColor=#36393d;fontStyle=1" vertex="1" parent="1"><mxGeometry x="10" y="380" width="90" height="30" as="geometry"/></mxCell><mxCell id="61" style="edgeStyle=orthogonalEdgeStyle;rounded=0;orthogonalLoop=1;jettySize=auto;html=1;entryX=0;entryY=0.5;entryDx=0;entryDy=0;" edge="1" parent="1" source="54" target="56"><mxGeometry relative="1" as="geometry"/></mxCell><mxCell id="72" value="" style="edgeStyle=orthogonalEdgeStyle;rounded=0;orthogonalLoop=1;jettySize=auto;html=1;" edge="1" parent="1" source="54" target="69"><mxGeometry relative="1" as="geometry"/></mxCell><mxCell id="54" value="visit a pet" style="rounded=0;whiteSpace=wrap;html=1;" vertex="1" parent="1"><mxGeometry x="1010" y="90" width="120" height="60" as="geometry"/></mxCell><mxCell id="68" style="edgeStyle=orthogonalEdgeStyle;rounded=0;orthogonalLoop=1;jettySize=auto;html=1;entryX=0.5;entryY=0;entryDx=0;entryDy=0;" edge="1" parent="1" source="56" target="67"><mxGeometry relative="1" as="geometry"/></mxCell><mxCell id="56" value="adopt" style="rounded=0;whiteSpace=wrap;html=1;" vertex="1" parent="1"><mxGeometry x="1170" y="90" width="120" height="60" as="geometry"/></mxCell><mxCell id="60" style="edgeStyle=orthogonalEdgeStyle;rounded=0;orthogonalLoop=1;jettySize=auto;html=1;" edge="1" parent="1" source="58" target="54"><mxGeometry relative="1" as="geometry"/></mxCell><mxCell id="71" style="edgeStyle=orthogonalEdgeStyle;rounded=0;orthogonalLoop=1;jettySize=auto;html=1;" edge="1" parent="1" source="58" target="70"><mxGeometry relative="1" as="geometry"/></mxCell><mxCell id="58" value="donation" style="rounded=0;whiteSpace=wrap;html=1;" vertex="1" parent="1"><mxGeometry x="860" y="90" width="120" height="60" as="geometry"/></mxCell><mxCell id="67" value="fill adopt form" style="rounded=0;whiteSpace=wrap;html=1;" vertex="1" parent="1"><mxGeometry x="1170" y="180" width="120" height="60" as="geometry"/></mxCell><mxCell id="69" value="fill appoiment form" style="rounded=0;whiteSpace=wrap;html=1;" vertex="1" parent="1"><mxGeometry x="1010" y="180" width="120" height="60" as="geometry"/></mxCell><mxCell id="70" value="fill donation form" style="rounded=0;whiteSpace=wrap;html=1;" vertex="1" parent="1"><mxGeometry x="860" y="180" width="120" height="60" as="geometry"/></mxCell><mxCell id="78" value="" style="edgeStyle=orthogonalEdgeStyle;rounded=0;orthogonalLoop=1;jettySize=auto;html=1;" edge="1" parent="1" source="73" target="76"><mxGeometry relative="1" as="geometry"/></mxCell><mxCell id="73" value="adoptions" style="rounded=0;whiteSpace=wrap;html=1;" vertex="1" parent="1"><mxGeometry x="1350" y="430" width="120" height="60" as="geometry"/></mxCell><mxCell id="83" style="edgeStyle=orthogonalEdgeStyle;rounded=0;orthogonalLoop=1;jettySize=auto;html=1;entryX=0.608;entryY=0.008;entryDx=0;entryDy=0;entryPerimeter=0;" edge="1" parent="1" source="74" target="80"><mxGeometry relative="1" as="geometry"/></mxCell><mxCell id="85" style="edgeStyle=orthogonalEdgeStyle;rounded=0;orthogonalLoop=1;jettySize=auto;html=1;entryX=0.5;entryY=0;entryDx=0;entryDy=0;" edge="1" parent="1" source="74" target="81"><mxGeometry relative="1" as="geometry"/></mxCell><mxCell id="74" value="view all pets" style="rounded=0;whiteSpace=wrap;html=1;" vertex="1" parent="1"><mxGeometry x="790" y="530" width="120" height="60" as="geometry"/></mxCell><mxCell id="76" value="view adoptions" style="rounded=0;whiteSpace=wrap;html=1;" vertex="1" parent="1"><mxGeometry x="1350" y="520" width="120" height="60" as="geometry"/></mxCell><mxCell id="80" value="update" style="rounded=0;whiteSpace=wrap;html=1;" vertex="1" parent="1"><mxGeometry x="700" y="620" width="120" height="60" as="geometry"/></mxCell><mxCell id="81" value="delete" style="rounded=0;whiteSpace=wrap;html=1;" vertex="1" parent="1"><mxGeometry x="860" y="620" width="120" height="60" as="geometry"/></mxCell><mxCell id="86" value="view my appoiments" style="rounded=0;whiteSpace=wrap;html=1;" vertex="1" parent="1"><mxGeometry x="530" y="180" width="120" height="60" as="geometry"/></mxCell><mxCell id="88" value="view my donations" style="rounded=0;whiteSpace=wrap;html=1;" vertex="1" parent="1"><mxGeometry x="530" y="250" width="120" height="60" as="geometry"/></mxCell><mxCell id="89" value="view my adoptions" style="rounded=0;whiteSpace=wrap;html=1;" vertex="1" parent="1"><mxGeometry x="530" y="320" width="120" height="60" as="geometry"/></mxCell></root></mxGraphModel></diagram></mxfile>